<?xml version="1.0" encoding="UTF-8"?>
<svg xmlns="http://www.w3.org/2000/svg" xmlns:xlink="http://www.w3.org/1999/xlink" width="150pt" height="150pt" viewBox="0 0 150 150" version="1.1">
<g id="surface1">
<path style=" stroke:none;fill-rule:evenodd;fill:rgb(80%,52.54902%,20.392157%);fill-opacity:1;" d="M 39.847656 14.0625 L 30.472656 35.15625 L 30.472656 135.9375 L 49.222656 135.9375 L 49.222656 35.15625 Z M 39.847656 14.0625 "/>
<path style=" stroke:none;fill-rule:evenodd;fill:rgb(80%,52.54902%,20.392157%);fill-opacity:1;" d="M 75.003906 14.0625 L 65.628906 35.15625 L 65.628906 135.9375 L 84.378906 135.9375 L 84.378906 35.15625 Z M 75.003906 14.0625 "/>
<path style=" stroke:none;fill-rule:evenodd;fill:rgb(80%,52.54902%,20.392157%);fill-opacity:1;" d="M 110.160156 14.0625 L 100.785156 35.15625 L 100.785156 135.9375 L 119.535156 135.9375 L 119.535156 35.15625 Z M 110.160156 14.0625 "/>
<path style=" stroke:none;fill-rule:evenodd;fill:rgb(72.156863%,48.627451%,20.784314%);fill-opacity:1;" d="M 30.472656 60.9375 L 30.472656 64.890625 L 49.222656 64.890625 L 49.222656 60.9375 Z M 30.472656 60.9375 "/>
<path style=" stroke:none;fill-rule:evenodd;fill:rgb(72.156863%,48.627451%,20.784314%);fill-opacity:1;" d="M 65.628906 60.9375 L 65.628906 64.890625 L 84.378906 64.890625 L 84.378906 60.9375 Z M 65.628906 60.9375 "/>
<path style=" stroke:none;fill-rule:evenodd;fill:rgb(72.156863%,48.627451%,20.784314%);fill-opacity:1;" d="M 100.785156 60.9375 L 100.785156 64.890625 L 119.535156 64.890625 L 119.535156 60.9375 Z M 100.785156 60.9375 "/>
<path style=" stroke:none;fill-rule:evenodd;fill:rgb(90.588235%,60.784314%,15.686275%);fill-opacity:1;" d="M 14.0625 60.9375 L 14.0625 46.875 L 135.9375 46.875 L 135.9375 60.9375 Z M 14.0625 60.9375 "/>
<path style=" stroke:none;fill-rule:evenodd;fill:rgb(90.588235%,60.784314%,15.686275%);fill-opacity:1;" d="M 14.0625 110.15625 L 14.0625 96.09375 L 135.9375 96.09375 L 135.9375 110.15625 Z M 14.0625 110.15625 "/>
<path style=" stroke:none;fill-rule:evenodd;fill:rgb(72.156863%,48.627451%,20.784314%);fill-opacity:1;" d="M 30.472656 110.15625 L 30.472656 114.109375 L 49.222656 114.109375 L 49.222656 110.15625 Z M 30.472656 110.15625 "/>
<path style=" stroke:none;fill-rule:evenodd;fill:rgb(72.156863%,48.627451%,20.784314%);fill-opacity:1;" d="M 65.628906 110.15625 L 65.628906 114.109375 L 84.378906 114.109375 L 84.378906 110.15625 Z M 65.628906 110.15625 "/>
<path style=" stroke:none;fill-rule:evenodd;fill:rgb(72.156863%,48.627451%,20.784314%);fill-opacity:1;" d="M 100.785156 110.15625 L 100.785156 114.109375 L 119.535156 114.109375 L 119.535156 110.15625 Z M 100.785156 110.15625 "/>
<path style=" stroke:none;fill-rule:nonzero;fill:rgb(80.784314%,55.294118%,16.862745%);fill-opacity:1;" d="M 42.335938 53.90625 C 42.335938 55.28125 41.222656 56.394531 39.847656 56.394531 C 38.472656 56.394531 37.355469 55.28125 37.355469 53.90625 C 37.355469 52.53125 38.472656 51.414062 39.847656 51.414062 C 41.222656 51.414062 42.335938 52.53125 42.335938 53.90625 Z M 42.335938 53.90625 "/>
<path style=" stroke:none;fill-rule:nonzero;fill:rgb(80.784314%,55.294118%,16.862745%);fill-opacity:1;" d="M 77.492188 53.90625 C 77.492188 55.28125 76.378906 56.394531 75.003906 56.394531 C 73.628906 56.394531 72.511719 55.28125 72.511719 53.90625 C 72.511719 52.53125 73.628906 51.414062 75.003906 51.414062 C 76.378906 51.414062 77.492188 52.53125 77.492188 53.90625 Z M 77.492188 53.90625 "/>
<path style=" stroke:none;fill-rule:nonzero;fill:rgb(80.784314%,55.294118%,16.862745%);fill-opacity:1;" d="M 112.648438 53.90625 C 112.648438 55.28125 111.535156 56.394531 110.160156 56.394531 C 108.785156 56.394531 107.667969 55.28125 107.667969 53.90625 C 107.667969 52.53125 108.785156 51.414062 110.160156 51.414062 C 111.535156 51.414062 112.648438 52.53125 112.648438 53.90625 Z M 112.648438 53.90625 "/>
<path style=" stroke:none;fill-rule:nonzero;fill:rgb(80.784314%,55.294118%,16.862745%);fill-opacity:1;" d="M 42.335938 103.125 C 42.335938 104.5 41.222656 105.613281 39.847656 105.613281 C 38.472656 105.613281 37.355469 104.5 37.355469 103.125 C 37.355469 101.75 38.472656 100.632812 39.847656 100.632812 C 41.222656 100.632812 42.335938 101.75 42.335938 103.125 Z M 42.335938 103.125 "/>
<path style=" stroke:none;fill-rule:nonzero;fill:rgb(80.784314%,55.294118%,16.862745%);fill-opacity:1;" d="M 77.492188 103.125 C 77.492188 104.5 76.378906 105.613281 75.003906 105.613281 C 73.628906 105.613281 72.511719 104.5 72.511719 103.125 C 72.511719 101.75 73.628906 100.632812 75.003906 100.632812 C 76.378906 100.632812 77.492188 101.75 77.492188 103.125 Z M 77.492188 103.125 "/>
<path style=" stroke:none;fill-rule:nonzero;fill:rgb(80.784314%,55.294118%,16.862745%);fill-opacity:1;" d="M 112.648438 103.125 C 112.648438 104.5 111.535156 105.613281 110.160156 105.613281 C 108.785156 105.613281 107.667969 104.5 107.667969 103.125 C 107.667969 101.75 108.785156 100.632812 110.160156 100.632812 C 111.535156 100.632812 112.648438 101.75 112.648438 103.125 Z M 112.648438 103.125 "/>
</g>
</svg>
