<?xml version="1.0" encoding="utf-8"?>
<!DOCTYPE svg PUBLIC "-//W3C//DTD SVG 1.1//EN" "http://www.w3.org/Graphics/SVG/1.1/DTD/svg11.dtd">
<svg version="1.1" xmlns="http://www.w3.org/2000/svg" xmlns:xlink="http://www.w3.org/1999/xlink" x="0px" y="0px"
     viewBox="0 0 1000 1000" enable-background="new 0 0 1000 1000" xml:space="preserve">
<g><g transform="translate(0.000000,512.000000) scale(0.100000,-0.100000)"><path d="M4541.1,5004.2c-885.3-78.6-1774.5-425.4-2510.4-977.3c-228-172.5-613.2-542.3-814.4-783.8C639.6,2553.2,262,1679.4,124.1,723.1C87.7,462.5,93.4-277.2,135.6-551.2c90.1-584.5,239.5-1057.8,488.7-1548.4c254.9-496.3,494.4-822.1,912.2-1239.9c438.8-440.8,764.6-674.5,1303.1-939c343-168.6,567.2-253,916-345c1450.6-381.3,2987.5-76.7,4206.3,837.4c228,170.5,649.6,578.7,837.4,810.6c436.9,538.5,781.8,1224.5,948.6,1887.6c287.4,1145.9,166.7,2311.1-352.6,3363.1c-274,553.8-546.2,927.5-990.7,1360.6c-141.8,138-343,314.3-448.4,394.8C6971,4770.4,5765.7,5113.4,4541.1,5004.2z M5539.5,4785.7c1065.5-124.6,2062-615.1,2811.2-1383.6c870-891.1,1339.5-2040.9,1339.5-3282.6c0-2596.6-2098.4-4695-4695-4695s-4695,2098.4-4695,4695c0,1057.8,321.9,2002.5,985,2884c147.6,197.4,628.5,678.4,825.9,825.9c718.6,540.4,1479.4,852.8,2318.7,956.2C4721.3,4820.2,5242.5,4820.2,5539.5,4785.7z"/><path
        d="M4836.3,2857.9c-201.2-47.9-390.9-199.3-484.8-392.8c-49.8-101.6-55.6-132.2-55.6-304.7c0-170.6,5.7-203.1,51.7-299c65.2-130.3,201.2-272.1,320-331.5c362.2-184,793.3-38.3,971.6,327.7c74.7,153.3,86.2,389,26.8,548.1C5539.5,2742.9,5181.2,2938.4,4836.3,2857.9z M5173.5,2641.4c107.3-40.2,199.3-118.8,260.6-226.1c151.4-264.4,55.6-571.1-216.5-705.2c-113-55.6-139.9-61.3-247.2-53.7c-283.6,23-477.2,226.1-479.1,504c-1.9,212.7,130.3,410.1,321.9,477.1C4911,2672,5079.6,2673.9,5173.5,2641.4z"/><path
        d="M3454.6,1646.8c-718.6-741.6-701.4-726.3-701.4-659.2c0,34.5-13.4,82.4-30.7,105.4c-26.8,40.2-42.2,42.2-283.6,42.2c-170.6,0-260.6-7.7-275.9-23c-17.3-17.3-23-138-23-427.3V280.5l-78.6-74.7c-138-132.2-343-373.7-343-400.5c0-44.1,55.6-88.1,111.1-88.1c38.3,0,80.5,32.6,166.7,124.6c63.2,69,120.7,124.6,130.3,124.6c7.7,0,13.4-469.5,13.4-1044.4v-1042.5l-205-5.8l-207-5.7l-5.7-99.6l-5.8-101.6h1745.8H5208l-5.7,101.6l-5.7,99.6l-99.7,5.7l-101.6,5.8v1048.2V-26.1l130.3-128.4c130.3-130.3,197.4-157.1,249.1-105.4c69,69,46,97.7-829.8,1011.8c-935.2,975.4-937.1,977.3-981.2,977.3C3546.6,1729.2,3498.7,1692.8,3454.6,1646.8z M4179,834.3l605.6-624.7v-1167v-1165.1h-402.4h-402.4v666.9c0,571.1-3.8,672.6-30.7,709c-28.7,40.2-38.3,42.2-390.9,42.2c-339.2,0-364.1-1.9-383.3-36.4c-11.5-24.9-19.2-283.6-19.2-709v-672.6h-412h-412v1159.4V196.2l484.8,498.2c264.5,274,538.5,559.6,605.6,632.4c69,74.7,130.3,134.1,138,134.1C3567.7,1460.9,3847.5,1179.2,4179,834.3z M2542.4,826.6c0-115-3.8-122.6-90.1-216.5c-49.8-53.7-97.7-99.7-105.4-103.5c-19.2-7.7-21.1,406.2-1.9,423.5c5.7,7.7,53.7,13.4,105.4,13.4h92V826.6z M3768.9-1509.4v-613.2h-201.2h-201.2v613.2v613.2h201.2h201.2V-1509.4z"/><path
        d="M3443.1,918.6c-239.5-67.1-385.2-256.8-383.3-500.2c1.9-189.7,90.1-339.2,253-431.2c251-143.7,557.6-57.5,697.5,193.5c47.9,88.1,55.6,120.7,55.6,245.3c0,166.7-38.3,253-157.1,367.9C3784.2,914.8,3604.1,962.7,3443.1,918.6z M3678.8,705.9c34.5-13.4,86.2-53.7,116.9-86.2c74.7-78.6,92-243.4,34.5-346.8c-44.1-80.5-174.4-153.3-270.2-153.3c-92,0-210.8,70.9-258.7,151.4C3157.6,518.1,3418.2,817,3678.8,705.9z"/><path
        d="M7377.3,1319.1c-115-38.3-205-97.7-291.3-195.5c-141.8-161-143.7-172.5-151.4-1023.3l-7.7-756.9l-36.4,118.8c-115,366-513.6,613.2-887.3,548.1c-360.3-61.3-626.6-325.8-687.9-684.1c-26.8-155.2-1.9-323.8,70.9-481c92-201.2,343-402.4,553.8-440.8l70.9-13.4v-256.8v-256.8h-95.8h-95.8V-2228v-105.4h402.4h402.4v105.4v105.4H6423h-201.2v256.8v254.9l72.8,13.4c132.2,21.1,300.9,120.7,421.6,251c115,122.6,176.3,241.5,207,402.4l13.4,72.8l34.5-115c46-149.5,170.6-291.3,314.3-358.3c57.5-28.8,116.9-49.8,132.2-49.8c26.8,0,30.7-46,30.7-362.2v-364.1l-99.7-5.8l-101.6-5.7l-5.8-99.6l-5.7-101.6h519.3h519.3l-5.7,101.6l-5.7,99.6l-300.9,5.7l-302.8,5.8v358.3v358.3l92,32.6c187.8,67.1,341.1,226.1,389,402.4c11.5,46,17.3,410.1,13.4,977.3c-5.7,902.6-5.7,906.4-49.8,988.8c-111.1,208.9-293.2,329.6-517.4,341.1C7511.4,1342.1,7425.2,1334.4,7377.3,1319.1z M7712.6,1106.4c157.1-67.1,233.8-193.6,247.2-415.8c7.6-101.6,3.8-149.5-9.6-149.5c-11.5,0-26.8,9.6-32.6,19.2c-24.9,42.2-99.6,17.2-172.5-59.4l-76.7-76.7l-9.6,149.5l-9.6,149.5l-99.6,5.7l-101.6,5.7V575.6V418.4l-82.4,80.5c-84.3,82.4-155.2,103.5-201.2,57.5c-36.4-36.4-30.7,237.6,7.7,325.8C7258.5,1089.1,7505.7,1190.7,7712.6,1106.4z M7448.2-31.9v-162.9l-82.4,80.5c-84.3,82.4-155.2,103.5-201.2,57.5c-17.3-17.3-23,34.5-23,233.8v258.7l153.3-153.3l153.3-153.3V-31.9z M7956-68.3c-5.8-5.8-21.1,0-32.6,11.5c-42.2,42.2-99.7,23-182.1-57.5l-82.4-80.5v161v162.9l149.5,149.5L7956,428l5.7-243.4C7963.7,50.5,7961.8-62.5,7956-68.3z M6382.7-242.7C6599.3-350,6727.7-555,6727.7-800.3c-1.9-172.5-44.1-283.6-161-410.1c-115-124.6-344.9-231.9-344.9-159.1c0,13.4,69,92,153.3,176.3c84.3,84.3,153.3,166.7,153.3,182.1c0,47.9-57.5,115-97.7,115c-21.1,0-76.7-36.4-122.6-78.6l-86.2-80.5v176.3v174.4h-105.4H6011v-70.9v-69l-132.2,126.5c-74.7,72.8-149.5,128.4-170.5,128.4c-42.2,0-99.6-67.1-99.6-115c0-15.3,90.1-118.8,201.2-230l201.2-201.2v-128.4c0-95.8-7.7-130.3-24.9-130.3c-55.6,0-262.5,120.7-318.1,184c-118.8,134.1-145.6,210.8-145.6,410.1c0,153.3,7.7,195.5,46,268.3c80.5,155.2,220.4,274,385.2,327.7C6049.3-173.7,6283.1-194.8,6382.7-242.7z M7448.2-645.1V-808l-82.4,80.5c-84.3,82.4-155.2,103.5-201.2,57.5c-17.3-17.3-23,34.5-23,233.8v258.7l153.3-153.3l153.3-153.3V-645.1z M7956-681.5c-5.8-5.8-21.1,0-32.6,11.5c-46,46-111.1,24.9-187.8-57.5l-76.6-82.4V-647v162.9l149.5,149.5L7956-185.2l5.7-243.4C7963.7-562.7,7961.8-675.8,7956-681.5z M7448.2-1149.1v-53.7l-70.9,36.4c-130.3,65.2-235.7,216.6-235.7,331.5c0,36.4,26.8,17.2,153.3-109.2C7413.7-1062.9,7448.2-1108.9,7448.2-1149.1z M7956-861.7c-28.8-130.3-109.2-245.3-205-295.1c-70.9-36.4-92-34.5-92,15.3c0,38.3,254.9,333.4,293.2,339.2C7961.8-802.3,7961.8-829.1,7956-861.7z"/><path
        d="M5411.2-2136c-7.7-5.7-13.4-53.7-13.4-105.4v-92h105.4h105.4v105.4v105.4h-92C5464.8-2122.6,5416.9-2128.3,5411.2-2136z"/><path
        d="M6835-2226.1v-107.3h107.3h105.4l-5.7,101.6l-5.8,99.6l-99.6,5.7l-101.6,5.8V-2226.1z"/><path
        d="M3979.7-2640v-95.8h95.8h95.8v95.8v95.8h-95.8h-95.8V-2640z"/><path
        d="M4382.1-2640v-95.8h105.4h105.4v95.8v95.8h-105.4h-105.4V-2640z"/><path
        d="M4784.5-2640v-95.8h824h824v95.8v95.8h-824h-824V-2640z"/></g></g>
</svg>
