<?xml version="1.0" encoding="UTF-8"?>
<svg xmlns="http://www.w3.org/2000/svg" xmlns:xlink="http://www.w3.org/1999/xlink" width="150pt" height="150pt" viewBox="0 0 150 150" version="1.1">
<defs>
<filter id="alpha" filterUnits="objectBoundingBox" x="0%" y="0%" width="100%" height="100%">
  <feColorMatrix type="matrix" in="SourceGraphic" values="0 0 0 0 1 0 0 0 0 1 0 0 0 0 1 0 0 0 1 0"/>
</filter>
<mask id="mask0">
  <g filter="url(#alpha)">
<rect x="0" y="0" width="150" height="150" style="fill:rgb(0%,0%,0%);fill-opacity:0.101961;stroke:none;"/>
  </g>
</mask>
<clipPath id="clip1">
  <rect width="150" height="150"/>
</clipPath>
<g id="surface6" clip-path="url(#clip1)">
<path style=" stroke:none;fill-rule:nonzero;fill:rgb(0.392157%,0.392157%,0.392157%);fill-opacity:1;" d="M 100 37.5 L 100 87.5 C 100 94.402344 94.402344 100 87.5 100 L 37.5 100 L 37.5 112.5 L 112.5 112.5 L 112.5 37.5 Z M 100 37.5 "/>
</g>
<linearGradient id="linear0" gradientUnits="userSpaceOnUse" x1="12.004608" y1="12.007538" x2="19.705261" y2="19.708191" gradientTransform="matrix(6.25,0,0,6.25,0,0)">
<stop offset="0" style="stop-color:rgb(0.392157%,0.392157%,0.392157%);stop-opacity:0.101961;"/>
<stop offset="1" style="stop-color:rgb(0.392157%,0.392157%,0.392157%);stop-opacity:0;"/>
</linearGradient>
<linearGradient id="linear1" gradientUnits="userSpaceOnUse" x1="0.623902" y1="6.695239" x2="23.376097" y2="17.304762" gradientTransform="matrix(6.25,0,0,6.25,0,0)">
<stop offset="0" style="stop-color:rgb(100%,100%,100%);stop-opacity:0.2;"/>
<stop offset="1" style="stop-color:rgb(100%,100%,100%);stop-opacity:0;"/>
</linearGradient>
</defs>
<g id="surface1">
<path style=" stroke:none;fill-rule:nonzero;fill:rgb(18.823529%,23.529412%,25.882353%);fill-opacity:1;" d="M 140.625 59.375 C 142.351562 59.375 143.75 57.976562 143.75 56.25 C 143.75 54.523438 142.351562 53.125 140.625 53.125 L 131.25 53.125 L 131.25 40.625 L 140.625 40.625 C 142.351562 40.625 143.75 39.226562 143.75 37.5 C 143.75 35.773438 142.351562 34.375 140.625 34.375 L 131.25 34.375 L 131.25 31.25 C 131.25 24.355469 125.644531 18.75 118.75 18.75 L 115.625 18.75 L 115.625 9.375 C 115.625 7.648438 114.226562 6.25 112.5 6.25 C 110.773438 6.25 109.375 7.648438 109.375 9.375 L 109.375 18.75 L 96.875 18.75 L 96.875 9.375 C 96.875 7.648438 95.476562 6.25 93.75 6.25 C 92.023438 6.25 90.625 7.648438 90.625 9.375 L 90.625 18.75 L 78.125 18.75 L 78.125 9.375 C 78.125 7.648438 76.726562 6.25 75 6.25 C 73.273438 6.25 71.875 7.648438 71.875 9.375 L 71.875 18.75 L 59.375 18.75 L 59.375 9.375 C 59.375 7.648438 57.976562 6.25 56.25 6.25 C 54.523438 6.25 53.125 7.648438 53.125 9.375 L 53.125 18.75 L 40.625 18.75 L 40.625 9.375 C 40.625 7.648438 39.226562 6.25 37.5 6.25 C 35.773438 6.25 34.375 7.648438 34.375 9.375 L 34.375 18.75 L 31.25 18.75 C 24.355469 18.75 18.75 24.355469 18.75 31.25 L 18.75 34.375 L 9.375 34.375 C 7.648438 34.375 6.25 35.773438 6.25 37.5 C 6.25 39.226562 7.648438 40.625 9.375 40.625 L 18.75 40.625 L 18.75 53.125 L 9.375 53.125 C 7.648438 53.125 6.25 54.523438 6.25 56.25 C 6.25 57.976562 7.648438 59.375 9.375 59.375 L 18.75 59.375 L 18.75 71.875 L 9.375 71.875 C 7.648438 71.875 6.25 73.273438 6.25 75 C 6.25 76.726562 7.648438 78.125 9.375 78.125 L 18.75 78.125 L 18.75 90.625 L 9.375 90.625 C 7.648438 90.625 6.25 92.023438 6.25 93.75 C 6.25 95.476562 7.648438 96.875 9.375 96.875 L 18.75 96.875 L 18.75 109.375 L 9.375 109.375 C 7.648438 109.375 6.25 110.773438 6.25 112.5 C 6.25 114.226562 7.648438 115.625 9.375 115.625 L 18.75 115.625 L 18.75 118.75 C 18.75 125.644531 24.355469 131.25 31.25 131.25 L 34.375 131.25 L 34.375 140.625 C 34.375 142.351562 35.773438 143.75 37.5 143.75 C 39.226562 143.75 40.625 142.351562 40.625 140.625 L 40.625 131.25 L 53.125 131.25 L 53.125 140.625 C 53.125 142.351562 54.523438 143.75 56.25 143.75 C 57.976562 143.75 59.375 142.351562 59.375 140.625 L 59.375 131.25 L 71.875 131.25 L 71.875 140.625 C 71.875 142.351562 73.273438 143.75 75 143.75 C 76.726562 143.75 78.125 142.351562 78.125 140.625 L 78.125 131.25 L 90.625 131.25 L 90.625 140.625 C 90.625 142.351562 92.023438 143.75 93.75 143.75 C 95.476562 143.75 96.875 142.351562 96.875 140.625 L 96.875 131.25 L 109.375 131.25 L 109.375 140.625 C 109.375 142.351562 110.773438 143.75 112.5 143.75 C 114.226562 143.75 115.625 142.351562 115.625 140.625 L 115.625 131.25 L 118.75 131.25 C 125.644531 131.25 131.25 125.644531 131.25 118.75 L 131.25 115.625 L 140.625 115.625 C 142.351562 115.625 143.75 114.226562 143.75 112.5 C 143.75 110.773438 142.351562 109.375 140.625 109.375 L 131.25 109.375 L 131.25 96.875 L 140.625 96.875 C 142.351562 96.875 143.75 95.476562 143.75 93.75 C 143.75 92.023438 142.351562 90.625 140.625 90.625 L 131.25 90.625 L 131.25 78.125 L 140.625 78.125 C 142.351562 78.125 143.75 76.726562 143.75 75 C 143.75 73.273438 142.351562 71.875 140.625 71.875 L 131.25 71.875 L 131.25 59.375 Z M 140.625 59.375 "/>
<path style=" stroke:none;fill-rule:nonzero;fill:rgb(48.627451%,70.196078%,25.882353%);fill-opacity:1;" d="M 125 118.75 C 125 122.195312 122.195312 125 118.75 125 L 31.25 125 C 27.804688 125 25 122.195312 25 118.75 L 25 31.25 C 25 27.804688 27.804688 25 31.25 25 L 118.75 25 C 122.195312 25 125 27.804688 125 31.25 Z M 125 118.75 "/>
<path style=" stroke:none;fill-rule:nonzero;fill:rgb(18.823529%,23.529412%,25.882353%);fill-opacity:1;" d="M 115.625 31.25 L 34.375 31.25 C 32.648438 31.25 31.25 32.648438 31.25 34.375 L 31.25 115.625 C 31.25 117.351562 32.648438 118.75 34.375 118.75 L 115.625 118.75 C 117.351562 118.75 118.75 117.351562 118.75 115.625 L 118.75 34.375 C 118.75 32.648438 117.351562 31.25 115.625 31.25 Z M 115.625 31.25 "/>
<path style=" stroke:none;fill-rule:nonzero;fill:rgb(95.294118%,95.294118%,95.294118%);fill-opacity:1;" d="M 37.5 37.5 L 112.5 37.5 L 112.5 112.5 L 37.5 112.5 Z M 37.5 37.5 "/>
<use xlink:href="#surface6" mask="url(#mask0)"/>
<path style=" stroke:none;fill-rule:nonzero;fill:url(#linear0);" d="M 117.933594 32.3125 C 118.425781 32.863281 118.75 33.574219 118.75 34.375 L 118.75 115.625 C 118.75 117.351562 117.351562 118.75 115.625 118.75 L 34.375 118.75 C 33.53125 118.75 32.773438 118.40625 32.210938 117.867188 L 32.207031 117.867188 L 39.339844 125 L 118.75 125 C 122.195312 125 125 122.195312 125 118.75 L 125 39.378906 Z M 117.933594 32.3125 "/>
<path style=" stroke:none;fill-rule:nonzero;fill:url(#linear1);" d="M 140.625 59.375 C 142.351562 59.375 143.75 57.976562 143.75 56.25 C 143.75 54.523438 142.351562 53.125 140.625 53.125 L 131.25 53.125 L 131.25 40.625 L 140.625 40.625 C 142.351562 40.625 143.75 39.226562 143.75 37.5 C 143.75 35.773438 142.351562 34.375 140.625 34.375 L 131.25 34.375 L 131.25 31.25 C 131.25 24.355469 125.644531 18.75 118.75 18.75 L 115.625 18.75 L 115.625 9.375 C 115.625 7.648438 114.226562 6.25 112.5 6.25 C 110.773438 6.25 109.375 7.648438 109.375 9.375 L 109.375 18.75 L 96.875 18.75 L 96.875 9.375 C 96.875 7.648438 95.476562 6.25 93.75 6.25 C 92.023438 6.25 90.625 7.648438 90.625 9.375 L 90.625 18.75 L 78.125 18.75 L 78.125 9.375 C 78.125 7.648438 76.726562 6.25 75 6.25 C 73.273438 6.25 71.875 7.648438 71.875 9.375 L 71.875 18.75 L 59.375 18.75 L 59.375 9.375 C 59.375 7.648438 57.976562 6.25 56.25 6.25 C 54.523438 6.25 53.125 7.648438 53.125 9.375 L 53.125 18.75 L 40.625 18.75 L 40.625 9.375 C 40.625 7.648438 39.226562 6.25 37.5 6.25 C 35.773438 6.25 34.375 7.648438 34.375 9.375 L 34.375 18.75 L 31.25 18.75 C 24.355469 18.75 18.75 24.355469 18.75 31.25 L 18.75 34.375 L 9.375 34.375 C 7.648438 34.375 6.25 35.773438 6.25 37.5 C 6.25 39.226562 7.648438 40.625 9.375 40.625 L 18.75 40.625 L 18.75 53.125 L 9.375 53.125 C 7.648438 53.125 6.25 54.523438 6.25 56.25 C 6.25 57.976562 7.648438 59.375 9.375 59.375 L 18.75 59.375 L 18.75 71.875 L 9.375 71.875 C 7.648438 71.875 6.25 73.273438 6.25 75 C 6.25 76.726562 7.648438 78.125 9.375 78.125 L 18.75 78.125 L 18.75 90.625 L 9.375 90.625 C 7.648438 90.625 6.25 92.023438 6.25 93.75 C 6.25 95.476562 7.648438 96.875 9.375 96.875 L 18.75 96.875 L 18.75 109.375 L 9.375 109.375 C 7.648438 109.375 6.25 110.773438 6.25 112.5 C 6.25 114.226562 7.648438 115.625 9.375 115.625 L 18.75 115.625 L 18.75 118.75 C 18.75 125.644531 24.355469 131.25 31.25 131.25 L 34.375 131.25 L 34.375 140.625 C 34.375 142.351562 35.773438 143.75 37.5 143.75 C 39.226562 143.75 40.625 142.351562 40.625 140.625 L 40.625 131.25 L 53.125 131.25 L 53.125 140.625 C 53.125 142.351562 54.523438 143.75 56.25 143.75 C 57.976562 143.75 59.375 142.351562 59.375 140.625 L 59.375 131.25 L 71.875 131.25 L 71.875 140.625 C 71.875 142.351562 73.273438 143.75 75 143.75 C 76.726562 143.75 78.125 142.351562 78.125 140.625 L 78.125 131.25 L 90.625 131.25 L 90.625 140.625 C 90.625 142.351562 92.023438 143.75 93.75 143.75 C 95.476562 143.75 96.875 142.351562 96.875 140.625 L 96.875 131.25 L 109.375 131.25 L 109.375 140.625 C 109.375 142.351562 110.773438 143.75 112.5 143.75 C 114.226562 143.75 115.625 142.351562 115.625 140.625 L 115.625 131.25 L 118.75 131.25 C 125.644531 131.25 131.25 125.644531 131.25 118.75 L 131.25 115.625 L 140.625 115.625 C 142.351562 115.625 143.75 114.226562 143.75 112.5 C 143.75 110.773438 142.351562 109.375 140.625 109.375 L 131.25 109.375 L 131.25 96.875 L 140.625 96.875 C 142.351562 96.875 143.75 95.476562 143.75 93.75 C 143.75 92.023438 142.351562 90.625 140.625 90.625 L 131.25 90.625 L 131.25 78.125 L 140.625 78.125 C 142.351562 78.125 143.75 76.726562 143.75 75 C 143.75 73.273438 142.351562 71.875 140.625 71.875 L 131.25 71.875 L 131.25 59.375 Z M 140.625 59.375 "/>
</g>
</svg>
