<?xml version="1.0" encoding="UTF-8"?>
<svg xmlns="http://www.w3.org/2000/svg" xmlns:xlink="http://www.w3.org/1999/xlink" width="150pt" height="150pt" viewBox="0 0 150 150" version="1.1">
<defs>
<linearGradient id="linear0" gradientUnits="userSpaceOnUse" x1="64" y1="121.3333" x2="64" y2="93.4158" gradientTransform="matrix(1.171875,0,0,1.171875,0,0)">
<stop offset="0.00227541" style="stop-color:rgb(36.470588%,25.098039%,21.568627%);stop-opacity:1;"/>
<stop offset="1" style="stop-color:rgb(55.294118%,43.137255%,38.823529%);stop-opacity:1;"/>
</linearGradient>
<filter id="alpha" filterUnits="objectBoundingBox" x="0%" y="0%" width="100%" height="100%">
  <feColorMatrix type="matrix" in="SourceGraphic" values="0 0 0 0 1 0 0 0 0 1 0 0 0 0 1 0 0 0 1 0"/>
</filter>
<mask id="mask0">
  <g filter="url(#alpha)">
<rect x="0" y="0" width="150" height="150" style="fill:rgb(0%,0%,0%);fill-opacity:0.2;stroke:none;"/>
  </g>
</mask>
<clipPath id="clip1">
  <rect width="150" height="150"/>
</clipPath>
<g id="surface6" clip-path="url(#clip1)">
<path style=" stroke:none;fill-rule:nonzero;fill:rgb(25.882353%,25.882353%,25.882353%);fill-opacity:1;" d="M 79.453125 97.523438 C 79.300781 126.960938 81.796875 136.746094 83.976562 139.710938 C 84.292969 140.144531 84.621094 140.554688 84.960938 140.964844 L 64.6875 140.964844 C 64.96875 140.613281 65.226562 140.25 65.484375 139.886719 C 69.480469 133.980469 69.515625 114.398438 68.707031 97.792969 L 79.453125 97.523438 M 81.632812 93.222656 C 81.597656 93.222656 81.574219 93.222656 81.539062 93.222656 L 66.292969 93.609375 C 65.144531 93.632812 64.265625 94.171875 64.300781 94.816406 C 64.652344 101.121094 66.105469 131.402344 61.96875 137.507812 C 60.222656 140.085938 57.644531 141.984375 55.464844 143.25 C 54.199219 143.988281 55.160156 145.21875 56.988281 145.21875 L 93.011719 145.21875 C 94.921875 145.21875 95.824219 143.917969 94.429688 143.191406 C 92.121094 141.996094 89.519531 140.121094 87.398438 137.214844 C 83.507812 131.894531 83.648438 100.980469 83.71875 94.40625 C 83.730469 93.738281 82.792969 93.222656 81.632812 93.222656 Z M 81.632812 93.222656 "/>
</g>
<linearGradient id="linear1" gradientUnits="userSpaceOnUse" x1="55.2039" y1="42.6083" x2="95.8998" y2="97.3989" gradientTransform="matrix(1.171875,0,0,1.171875,0,0)">
<stop offset="0" style="stop-color:rgb(61.176471%,80%,39.607843%);stop-opacity:1;"/>
<stop offset="0.9952" style="stop-color:rgb(40.784314%,62.352941%,21.960784%);stop-opacity:1;"/>
</linearGradient>
</defs>
<g id="surface1">
<path style=" stroke:none;fill-rule:nonzero;fill:url(#linear0);" d="M 66.292969 93.597656 C 65.144531 93.621094 64.265625 94.160156 64.300781 94.804688 C 64.652344 101.109375 66.105469 131.390625 61.96875 137.496094 C 60.222656 140.074219 57.644531 141.972656 55.464844 143.238281 C 54.199219 143.976562 55.160156 145.207031 56.988281 145.207031 L 93.011719 145.207031 C 94.921875 145.207031 95.824219 143.90625 94.429688 143.179688 C 92.121094 141.984375 89.519531 140.109375 87.398438 137.203125 C 83.507812 131.882812 83.648438 100.96875 83.71875 94.394531 C 83.730469 93.726562 82.734375 93.1875 81.539062 93.222656 Z M 66.292969 93.597656 "/>
<use xlink:href="#surface6" mask="url(#mask0)"/>
<path style=" stroke:none;fill-rule:nonzero;fill:url(#linear1);" d="M 66.75 117.1875 C 55.628906 117.1875 45.914062 110.0625 42.574219 99.457031 C 42.339844 98.71875 41.660156 98.226562 40.898438 98.226562 C 40.851562 98.226562 40.804688 98.226562 40.757812 98.226562 C 40.054688 98.285156 39.433594 98.308594 38.871094 98.308594 C 25.523438 98.308594 14.660156 87.070312 14.660156 73.253906 C 14.660156 64.675781 18.84375 56.777344 25.851562 52.136719 C 26.519531 51.691406 26.800781 50.847656 26.542969 50.097656 C 25.652344 47.542969 25.207031 44.871094 25.207031 42.164062 C 25.207031 28.816406 36.070312 17.953125 49.417969 17.953125 C 51.351562 17.953125 53.296875 18.1875 55.195312 18.65625 C 55.335938 18.691406 55.476562 18.703125 55.617188 18.703125 C 56.214844 18.703125 56.789062 18.398438 57.105469 17.871094 C 61.558594 10.699219 69.257812 6.421875 77.683594 6.421875 C 88.371094 6.421875 97.933594 13.582031 100.921875 23.847656 C 101.144531 24.609375 101.835938 25.113281 102.609375 25.113281 C 102.714844 25.113281 102.832031 25.101562 102.9375 25.078125 C 104.449219 24.796875 105.972656 24.644531 107.472656 24.644531 C 120.820312 24.644531 131.683594 35.507812 131.683594 48.855469 C 131.683594 56.121094 128.460938 62.941406 122.847656 67.558594 C 122.460938 67.875 122.226562 68.355469 122.203125 68.859375 C 122.191406 69.363281 122.390625 69.855469 122.765625 70.195312 C 127.699219 74.765625 130.523438 81.234375 130.523438 87.949219 C 130.523438 101.296875 119.660156 112.160156 106.3125 112.160156 C 100.347656 112.160156 94.605469 109.96875 90.164062 105.984375 C 89.835938 105.691406 89.425781 105.539062 88.992188 105.539062 C 88.921875 105.539062 88.851562 105.539062 88.792969 105.550781 C 88.289062 105.609375 87.84375 105.878906 87.550781 106.289062 C 82.792969 113.132812 75.023438 117.1875 66.75 117.1875 Z M 66.75 117.1875 "/>
<path style=" stroke:none;fill-rule:nonzero;fill:rgb(40.784314%,62.352941%,21.960784%);fill-opacity:1;" d="M 77.660156 8.203125 C 87.574219 8.203125 96.433594 14.847656 99.210938 24.363281 C 99.65625 25.886719 101.050781 26.894531 102.585938 26.894531 C 102.808594 26.894531 103.019531 26.871094 103.242188 26.835938 C 104.636719 26.566406 106.054688 26.4375 107.449219 26.4375 C 119.835938 26.4375 129.902344 36.515625 129.902344 48.890625 C 129.902344 55.628906 126.914062 61.957031 121.699219 66.234375 C 120.914062 66.878906 120.445312 67.828125 120.421875 68.847656 C 120.386719 69.867188 120.796875 70.839844 121.546875 71.53125 C 126.117188 75.773438 128.742188 81.773438 128.742188 87.996094 C 128.742188 100.382812 118.664062 110.449219 106.289062 110.449219 C 100.757812 110.449219 95.4375 108.410156 91.3125 104.71875 C 90.667969 104.132812 89.824219 103.816406 88.96875 103.816406 C 88.839844 103.816406 88.699219 103.828125 88.558594 103.839844 C 87.5625 103.957031 86.660156 104.496094 86.085938 105.316406 C 81.667969 111.644531 74.4375 115.429688 66.738281 115.429688 C 56.378906 115.429688 47.34375 108.796875 44.238281 98.929688 C 43.769531 97.453125 42.410156 96.46875 40.886719 96.46875 C 40.792969 96.46875 40.699219 96.46875 40.605469 96.480469 C 39.949219 96.527344 39.375 96.5625 38.859375 96.5625 C 26.484375 96.5625 16.40625 86.121094 16.40625 73.277344 C 16.40625 65.285156 20.296875 57.9375 26.8125 53.625 C 28.148438 52.734375 28.722656 51.058594 28.195312 49.546875 C 27.375 47.167969 26.953125 44.695312 26.953125 42.1875 C 26.953125 29.800781 37.03125 19.734375 49.40625 19.734375 C 51.199219 19.734375 53.003906 19.957031 54.761719 20.378906 C 55.042969 20.449219 55.324219 20.484375 55.59375 20.484375 C 56.789062 20.484375 57.925781 19.875 58.582031 18.820312 C 62.71875 12.175781 69.855469 8.203125 77.660156 8.203125 M 77.660156 4.6875 C 68.34375 4.6875 60.175781 9.597656 55.59375 16.96875 C 53.613281 16.488281 51.539062 16.21875 49.40625 16.21875 C 35.0625 16.21875 23.4375 27.84375 23.4375 42.1875 C 23.4375 45.164062 23.941406 48.023438 24.867188 50.695312 C 17.671875 55.464844 12.890625 63.785156 12.890625 73.277344 C 12.890625 88.078125 24.515625 100.089844 38.859375 100.089844 C 39.539062 100.089844 40.21875 100.054688 40.886719 99.996094 C 44.34375 110.988281 54.609375 118.957031 66.738281 118.957031 C 75.949219 118.957031 84.070312 114.363281 88.96875 107.34375 C 93.5625 111.457031 99.632812 113.964844 106.289062 113.964844 C 120.632812 113.964844 132.257812 102.339844 132.257812 87.996094 C 132.257812 80.472656 129.046875 73.6875 123.9375 68.953125 C 129.726562 64.195312 133.417969 56.976562 133.417969 48.890625 C 133.417969 34.546875 121.792969 22.921875 107.449219 22.921875 C 105.785156 22.921875 104.167969 23.085938 102.585938 23.378906 C 99.445312 12.574219 89.484375 4.6875 77.660156 4.6875 Z M 77.660156 4.6875 "/>
<path style="fill:none;stroke-width:3;stroke-linecap:round;stroke-linejoin:round;stroke:rgb(40.784314%,62.352941%,21.960784%);stroke-opacity:1;stroke-miterlimit:10;" d="M 22.5 44.25 C 22.5 44.25 30 38.63 42 39.25 " transform="matrix(1.171875,0,0,1.171875,0,0)"/>
<path style="fill:none;stroke-width:3;stroke-linecap:round;stroke-linejoin:round;stroke:rgb(40.784314%,62.352941%,21.960784%);stroke-opacity:1;stroke-miterlimit:10;" d="M 44.5 26.5 C 44.5 26.5 44.83 21.5 49.14 14.71 " transform="matrix(1.171875,0,0,1.171875,0,0)"/>
<path style="fill:none;stroke-width:3;stroke-linecap:round;stroke-linejoin:round;stroke:rgb(40.784314%,62.352941%,21.960784%);stroke-opacity:1;stroke-miterlimit:10;" d="M 48.16 78.85 C 48.16 78.85 44.32 82.06 36.43 83.65 " transform="matrix(1.171875,0,0,1.171875,0,0)"/>
<path style="fill:none;stroke-width:3;stroke-linecap:round;stroke-linejoin:round;stroke:rgb(40.784314%,62.352941%,21.960784%);stroke-opacity:1;stroke-miterlimit:10;" d="M 66.52 85.83 C 71.41 88.25 78.89 88.11 83.75 85.63 " transform="matrix(1.171875,0,0,1.171875,0,0)"/>
<path style="fill:none;stroke-width:3;stroke-linecap:round;stroke-linejoin:round;stroke:rgb(40.784314%,62.352941%,21.960784%);stroke-opacity:1;stroke-miterlimit:10;" d="M 79.62 61.88 C 85.24 63 92.5 58.88 94.49 53.68 " transform="matrix(1.171875,0,0,1.171875,0,0)"/>
<path style="fill:none;stroke-width:3;stroke-linecap:round;stroke-linejoin:round;stroke:rgb(40.784314%,62.352941%,21.960784%);stroke-opacity:1;stroke-miterlimit:10;" d="M 88.46 59.85 C 93.73 61.57 100.42 60.48 105.32 57.27 " transform="matrix(1.171875,0,0,1.171875,0,0)"/>
<path style="fill:none;stroke-width:3;stroke-linecap:round;stroke-linejoin:round;stroke:rgb(40.784314%,62.352941%,21.960784%);stroke-opacity:1;stroke-miterlimit:10;" d="M 39.67 72.5 C 43.4 77.34 50.23 79.54 56.33 78 " transform="matrix(1.171875,0,0,1.171875,0,0)"/>
</g>
</svg>
