<?xml version="1.0" encoding="UTF-8"?>
<svg xmlns="http://www.w3.org/2000/svg" xmlns:xlink="http://www.w3.org/1999/xlink" width="150pt" height="150pt" viewBox="0 0 150 150" version="1.1">
<g id="surface1">
<path style=" stroke:none;fill-rule:nonzero;fill:rgb(23.529412%,68.235294%,83.921569%);fill-opacity:1;" d="M 75 0 C 75 0 150 62.6875 150 93.75 C 150 124.8125 116.425781 150 75 150 C 33.582031 150 0 124.8125 0 93.75 Z M 75 0 "/>
<path style=" stroke:none;fill-rule:nonzero;fill:rgb(38.823529%,74.901961%,87.058824%);fill-opacity:1;" d="M 106.210938 75 C 99.289062 75 93.675781 79.210938 93.675781 84.40625 C 93.675781 89.597656 99.28125 93.804688 106.210938 93.804688 C 113.132812 93.804688 118.75 89.601562 118.75 84.40625 C 118.75 79.210938 113.136719 75 106.210938 75 Z M 106.210938 75 "/>
<path style=" stroke:none;fill-rule:nonzero;fill:rgb(21.176471%,61.568627%,75.294118%);fill-opacity:1;" d="M 81.25 145.3125 C 39.832031 145.3125 6.25 120.125 6.25 89.0625 C 6.25 63.296875 57.8125 15.8125 75.414062 0.347656 L 75 0 C 75 0 0 62.6875 0 93.75 C 0 124.8125 33.582031 150 75 150 C 97.300781 150 117.273438 142.660156 131.007812 131.066406 C 117.761719 139.902344 100.375 145.3125 81.25 145.3125 Z M 81.25 145.3125 "/>
</g>
</svg>
